<?xml version="1.0" encoding="UTF-8" standalone="no"?>
<!-- Created with Inkscape (http://www.inkscape.org/) -->

<svg
   xmlns:dc="http://purl.org/dc/elements/1.1/"
   xmlns:cc="http://creativecommons.org/ns#"
   xmlns:rdf="http://www.w3.org/1999/02/22-rdf-syntax-ns#"
   xmlns:svg="http://www.w3.org/2000/svg"
   xmlns="http://www.w3.org/2000/svg"
   xmlns:sodipodi="http://sodipodi.sourceforge.net/DTD/sodipodi-0.dtd"
   xmlns:inkscape="http://www.inkscape.org/namespaces/inkscape"
   width="170.56889mm"
   height="95.81794mm"
   viewBox="0 0 604.37796 339.51238"
   id="svg2"
   version="1.1"
   inkscape:version="0.91 r13725"
   sodipodi:docname="logo-ajiro.svg">
  <defs
     id="defs4" />
  <sodipodi:namedview
     id="base"
     pagecolor="#ffffff"
     bordercolor="#666666"
     borderopacity="1.0"
     inkscape:pageopacity="0.0"
     inkscape:pageshadow="2"
     inkscape:zoom="1.979899"
     inkscape:cx="283.46007"
     inkscape:cy="151.81463"
     inkscape:document-units="px"
     inkscape:current-layer="layer1"
     showgrid="false"
     fit-margin-top="0"
     fit-margin-left="0"
     fit-margin-right="0"
     fit-margin-bottom="0"
     inkscape:window-width="1920"
     inkscape:window-height="1024"
     inkscape:window-x="0"
     inkscape:window-y="19"
     inkscape:window-maximized="1"
     showguides="true"
     inkscape:guide-bbox="true">
    <sodipodi:guide
       position="464.67013,240.7951"
       orientation="0,1"
       id="guide4161" />
    <sodipodi:guide
       position="457.59906,115.15739"
       orientation="0,1"
       id="guide4163" />
  </sodipodi:namedview>
  <metadata
     id="metadata7">
    <rdf:RDF>
      <cc:Work
         rdf:about="">
        <dc:format>image/svg+xml</dc:format>
        <dc:type
           rdf:resource="http://purl.org/dc/dcmitype/StillImage" />
        <dc:title></dc:title>
      </cc:Work>
    </rdf:RDF>
  </metadata>
  <g
     inkscape:label="Calque 1"
     inkscape:groupmode="layer"
     id="layer1"
     transform="translate(-60.517173,-280.43556)">
    <path
       inkscape:connector-curvature="0"
       id="path4141"
       style="font-style:normal;font-variant:normal;font-weight:300;font-stretch:normal;font-size:medium;line-height:100%;font-family:'Honey Script';-inkscape-font-specification:'Honey Script Light';text-align:start;letter-spacing:0px;word-spacing:0px;writing-mode:lr-tb;text-anchor:start;fill:#3d7890;fill-opacity:1;stroke:none;stroke-width:1px;stroke-linecap:butt;stroke-linejoin:miter;stroke-opacity:1"
       d="m 284.13945,501.47264 q 0,3.23154 -5.81676,3.23154 -3.87785,0 -11.31038,-1.61577 -11.63353,-15.18822 -24.55968,-72.70957 -13.57245,1.93893 -38.13212,2.90839 -13.57246,0.6463 -22.94391,1.29261 -9.37146,0.32315 -14.86507,0.96946 -4.52415,7.43254 -11.31038,18.74291 -6.46307,11.31038 -15.83452,26.17545 -20.35868,31.02274 -41.040514,31.02274 -26.821751,0 -37.808974,-23.26706 1.615768,-2.26207 2.585229,-2.58523 0.969461,-0.6463 2.585229,0 1.292614,0.32316 3.231536,0.32316 0,9.69461 15.834528,9.69461 24.236526,0 41.686816,-18.41976 10.01776,-10.98722 25.20598,-40.3942 -2.58522,-0.32316 -4.8473,-0.32316 -1.93892,-0.32315 -3.87784,-0.32315 -2.26208,0 -6.13992,0.96946 -3.55469,0.64631 -5.49361,0.64631 -7.75569,0 -7.75569,-4.52415 0,-2.26208 34.90059,-6.13992 16.15768,-26.4986 37.16267,-80.46525 18.74291,-47.50359 18.74291,-57.1982 0,-0.96946 -0.64631,-2.26207 -0.64631,-1.61577 -0.64631,-2.58523 0,-4.201 10.01777,-4.201 3.23153,0 12.27983,5.49361 9.0483,5.17046 9.0483,8.402 0,2.58523 -0.6463,7.75568 -0.64631,4.84731 -0.64631,7.43254 0,44.27204 13.57245,108.57962 5.49361,25.52913 10.34092,44.27204 4.8473,18.74291 9.37145,30.6996 1.29262,3.87784 4.201,5.81676 2.90838,1.61577 3.55469,2.58523 z M 236.31271,396.44771 q -9.37145,-56.22873 -10.66407,-72.70956 -0.32315,-4.52415 -0.6463,-6.78623 0,-2.26207 0,-2.26207 -1.61577,-5.81677 -3.87785,-7.75569 -2.90838,5.49361 -8.72514,19.38922 -5.49362,13.8956 -13.89561,36.83951 -8.40199,22.2976 -15.18822,37.48582 -6.46307,15.18822 -11.63353,24.23652 l 68.83172,-1.61577 q 0,-1.93892 -4.201,-26.82175 z" />
    <path
       sodipodi:nodetypes="scccscccsscsccccccccccsccsscccscsccscsscc"
       inkscape:connector-curvature="0"
       id="path4143"
       style="font-style:normal;font-variant:normal;font-weight:300;font-stretch:normal;font-size:medium;line-height:100%;font-family:'Honey Script';-inkscape-font-specification:'Honey Script Light';text-align:start;letter-spacing:0px;word-spacing:0px;writing-mode:lr-tb;text-anchor:start;fill:#3d7890;fill-opacity:1;stroke:none;stroke-width:1px;stroke-linecap:butt;stroke-linejoin:miter;stroke-opacity:1"
       d="m 360.2975,526.23339 c 0,1.29262 -0.86174,3.12383 -2.58523,5.49362 -0.86175,0 -2.3698,-1.1849 -4.52415,-3.55469 -1.93893,-2.36979 -3.66241,-3.98556 -5.17046,-4.84731 -3.66241,-1.93892 -8.72515,-2.90838 -15.18822,-2.90838 -1.72349,0 -4.30872,0.21544 -7.75569,0.64631 -3.23153,0.64631 -5.60133,0.96946 -7.10938,0.96946 l 2.26208,52.02773 c 0.21543,12.0644 -3.66241,22.72847 -11.63353,31.99221 -7.97113,9.26373 -18.09661,13.8956 -30.37645,13.8956 -13.14158,0 -25.42142,-3.77012 -36.83951,-11.31037 -12.71071,-8.83287 -19.06606,-19.38922 -19.06606,-31.66906 0,-5.81677 1.72349,-10.87951 5.17046,-15.18822 1.07717,-1.07718 2.36979,-2.58523 3.87784,-4.52415 1.29261,-1.93892 3.0161,-4.09328 5.17046,-6.46307 12.0644,-14.86507 35.87005,-26.71403 71.41695,-35.5469 l -1.61577,-28.43752 c 0,-5.60133 0.21544,-12.38755 0.64631,-20.35868 0.21543,-7.97112 0.75402,-17.12714 1.61577,-27.46806 1.50805,-19.60465 2.15435,-30.26872 1.93892,-31.9922 -0.43087,-1.50805 -0.75403,-2.80067 -0.96946,-3.87785 l -0.64631,-1.93892 c 5.81677,-1.50805 9.91005,-2.26207 12.27984,-2.26207 4.52415,0 6.78622,1.50805 6.78622,4.52415 -3.66241,8.18655 -6.67851,23.37477 -9.0483,45.56466 -0.86174,8.61743 -1.50805,16.9117 -1.93892,24.88283 -0.43087,7.97112 -0.64631,15.61909 -0.64631,22.9439 l 0,9.37146 c 0.21544,3.0161 0.43088,5.81676 0.64631,8.40199 2.36979,0 5.81677,-0.32315 10.34092,-0.96946 4.73959,-0.43087 8.29428,-0.64631 10.66407,-0.64631 4.73958,0 9.37145,1.07718 13.8956,3.23154 5.60133,3.0161 8.402,6.35535 8.402,10.01776 z m -52.35089,-1.93892 c -9.69461,1.50805 -20.35868,5.27818 -31.99221,11.31038 -29.73013,15.29594 -44.5952,29.83785 -44.5952,43.62574 0,9.47917 5.06274,17.34258 15.18822,23.59021 9.26373,5.60133 18.74291,8.402 28.43752,8.402 10.34091,0 18.63519,-3.23154 24.88283,-9.69461 6.24763,-6.46307 9.26373,-14.86507 9.0483,-25.20598 z" />
    <path
       sodipodi:nodetypes="sccscsssccscccssccscss"
       inkscape:connector-curvature="0"
       id="path4145"
       style="font-style:normal;font-variant:normal;font-weight:300;font-stretch:normal;font-size:medium;line-height:100%;font-family:'Honey Script';-inkscape-font-specification:'Honey Script Light';text-align:start;letter-spacing:0px;word-spacing:0px;writing-mode:lr-tb;text-anchor:start;fill:#3d7890;fill-opacity:1;stroke:none;stroke-width:1px;stroke-linecap:butt;stroke-linejoin:miter;stroke-opacity:1"
       d="m 415.44811,414.25178 c 0,5.38589 -3.77013,20.35868 -11.31038,44.91836 -5.60133,17.66573 -9.15602,28.22208 -10.66407,31.66905 -4.30871,9.47917 -9.47917,14.21876 -15.51137,14.21876 -6.67851,0 -11.63353,-3.87784 -14.86507,-11.63353 -2.36979,-6.46307 -3.55469,-13.2493 -3.55469,-20.35868 0,-3.87784 0.21544,-8.72514 0.64631,-14.54191 0.43087,-5.81677 1.07718,-12.71071 1.93892,-20.68183 0.86174,-7.97113 1.50805,-14.86507 1.93892,-20.68184 0.43087,-6.0322 0.64631,-10.98722 0.64631,-14.86506 1.50805,-1.50805 3.6624,-2.26208 6.46307,-2.26208 5.60133,0 8.402,1.50805 8.402,4.52415 -0.43087,1.72349 -1.07718,4.201 -1.93893,7.43254 -0.64631,3.0161 -1.50805,6.89394 -2.58522,11.63353 -4.09328,19.60465 -6.13992,36.30092 -6.13992,50.08881 0,14.43419 3.23154,21.65129 9.69461,21.65129 3.0161,0 6.67851,-5.38589 10.98722,-16.15768 0.21543,-0.21543 3.77012,-11.20266 10.66407,-32.96167 1.07718,-3.44697 2.26208,-7.54025 3.55469,-12.27984 1.29261,-4.73959 2.69295,-10.2332 4.201,-16.48083 1.29261,-5.17046 2.80066,-7.75569 4.52415,-7.75569 1.93892,0 2.90838,1.50805 2.90838,4.52415 z" />
    <path
       inkscape:connector-curvature="0"
       id="path4147"
       style="font-style:normal;font-variant:normal;font-weight:300;font-stretch:normal;font-size:medium;line-height:100%;font-family:'Honey Script';-inkscape-font-specification:'Honey Script Light';text-align:start;letter-spacing:0px;word-spacing:0px;writing-mode:lr-tb;text-anchor:start;fill:#3d7890;fill-opacity:1;stroke:none;stroke-width:1px;stroke-linecap:butt;stroke-linejoin:miter;stroke-opacity:1"
       d="m 452.87335,504.59884 c -6.67851,0 -12.27984,-3.77013 -16.80399,-11.31038 -1.93892,-3.23153 -3.0161,-9.80232 -3.23153,-19.71237 -0.43087,-7.32481 -0.43087,-17.34257 0,-30.05328 l 0.6463,-25.85229 c 0,-5.17046 -5.27817,-10.44864 -15.83452,-15.83453 0,5.38589 -2.58523,16.91171 -7.75569,34.57744 0,0.21543 -0.53859,1.40033 -1.61577,3.55469 -1.07718,1.93892 -1.61577,3.0161 -1.61577,3.23153 l -4.201,-1.29261 c 0,-3.44697 1.29262,-10.2332 3.87785,-20.35868 2.80067,-9.69461 4.201,-17.34258 4.201,-22.94391 0,-2.15435 -0.86174,-5.81676 -2.58523,-10.98722 -1.72349,-5.17046 -2.58523,-8.94059 -2.58523,-11.31038 0,-10.77179 2.69295,-16.15768 8.07884,-16.15768 4.30871,0 6.57079,3.33925 6.78622,10.01776 0.21544,1.29261 0.21544,2.80066 0,4.52415 0,1.50805 -0.10772,3.33926 -0.32315,5.49361 -0.21543,2.58523 -0.43087,4.73959 -0.64631,6.46308 l 0,3.87784 c 0,2.15436 4.52415,5.60133 13.57246,10.34092 9.26373,4.73959 13.8956,10.2332 13.8956,16.48083 0,3.66241 -0.21544,8.18656 -0.64631,13.57245 -0.43087,5.17046 -1.07717,11.31038 -1.93892,18.41976 -0.86174,6.89395 -1.50805,13.03387 -1.93892,18.41976 -0.43087,5.17045 -0.64631,9.58689 -0.64631,13.2493 0,10.12548 3.12382,15.18822 9.37146,15.18822 3.66241,0 9.37145,-11.31038 17.12714,-33.93113 7.32481,-20.89727 10.62338,-29.59012 11.916,-39.7156 0.6463,-4.95502 4.93227,-14.5036 7.30207,-14.5036 1.72348,0 0.81746,1.86831 0.81746,5.09984 0,7.32482 -4.201,23.69794 -12.603,49.11936 -9.47917,28.22208 -17.01942,42.33312 -22.62075,42.33312 z"
       sodipodi:nodetypes="sscccccccccssssccccscscccssccsscs" />
    <path
       inkscape:connector-curvature="0"
       d="m 333.52046,316.19076 c 0,7.97113 -3.0161,11.95669 -9.0483,11.95669 -1.93893,0 -4.201,-0.86174 -6.78623,-2.58523 -2.36979,-1.72349 -3.55469,-3.55469 -3.55469,-5.49361 0,-0.86175 0.32315,-1.93893 0.96946,-3.23154 0.64631,-1.50805 1.40033,-2.90838 2.26208,-4.201 0.86174,-1.29261 1.8312,-2.36979 2.90838,-3.23153 1.07718,-1.07718 2.04664,-1.61577 2.90838,-1.61577 6.89395,0 10.34092,2.80066 10.34092,8.40199 z"
       style="font-style:normal;font-variant:normal;font-weight:300;font-stretch:normal;font-size:323.15362549px;line-height:100%;font-family:'Honey Script';-inkscape-font-specification:'Honey Script Light';text-align:start;letter-spacing:0px;word-spacing:0px;writing-mode:lr-tb;text-anchor:start;fill:#cd3349;fill-opacity:1;stroke:none;stroke-width:1px;stroke-linecap:butt;stroke-linejoin:miter;stroke-opacity:1"
       id="path4143-9"
       sodipodi:nodetypes="sscscscss" />
    <path
       style="fill:#cd3349;fill-opacity:1;fill-rule:evenodd;stroke:none;stroke-width:1px;stroke-linecap:butt;stroke-linejoin:miter;stroke-opacity:1"
       d="m 266.59361,352.1742 c 7.5602,-14.09744 19.54939,-0.1639 39.99297,7.6202 6.67103,2.54006 16.49877,3.07144 24.39682,3.54225 7.19239,0.42874 18.42474,-0.56111 32.31101,-4.33624 25.95915,-7.05728 95.67379,-47.21745 95.67379,-47.21745 0,0 -67.12812,46.1649 -94.32155,57.16552 -10.29964,4.16654 -26.72254,7.92258 -32.23467,8.27033 -22.38011,1.41191 -76.41646,-5.28244 -65.81837,-25.04461 z"
       id="path4175"
       inkscape:connector-curvature="0"
       sodipodi:nodetypes="sssscsss" />
    <path
       inkscape:connector-curvature="0"
       d="m 382.90062,329.08109 c 0,7.97112 -2.69295,11.95668 -8.07884,11.95668 -3.44697,0 -6.46307,-1.40033 -9.0483,-4.20099 -2.58523,-2.80067 -3.87784,-5.92449 -3.87784,-9.37146 0,-2.15436 1.07718,-4.41644 3.23153,-6.78623 2.36979,-2.36979 4.63187,-3.55469 6.78623,-3.55469 7.32481,0 10.98722,3.98556 10.98722,11.95669 z"
       style="font-style:normal;font-variant:normal;font-weight:300;font-stretch:normal;font-size:323.15362549px;line-height:100%;font-family:'Honey Script';-inkscape-font-specification:'Honey Script Light';text-align:start;letter-spacing:0px;word-spacing:0px;writing-mode:lr-tb;text-anchor:start;fill:#cd3349;fill-opacity:1;stroke:none;stroke-width:1px;stroke-linecap:butt;stroke-linejoin:miter;stroke-opacity:1"
       id="path4145-0"
       sodipodi:nodetypes="sssscss" />
    <path
       style="fill:#3d7890;fill-opacity:1;fill-rule:evenodd;stroke:none;stroke-width:1px;stroke-linecap:butt;stroke-linejoin:miter;stroke-opacity:1"
       d="m 513.8231,379.2791 c -12.63841,0.14571 -24.06645,12.28958 -29.16816,23.99112 -7.91366,18.1512 -8.69412,39.97356 -6.06092,59.599 1.8003,13.41773 2.59699,32.24666 13.76333,39.90103 3.88822,2.66532 10.16342,2.52824 14.14214,0 12.71353,-8.07869 15.73356,-26.98434 19.1929,-40.91118 5.12172,-20.61933 2.01101,-35.68357 1.60455,-38.9202 -0.25376,-2.02069 -0.4682,-7.59319 -3.10105,-11.28301 -1.57105,-2.20176 -8.82811,-4.73588 -8.05124,-1.01033 0.22516,1.07979 3.699,1.90569 4.75916,3.28886 1.17549,1.53363 0.96144,6.59945 0.99249,9.92371 0.0871,9.32999 -0.0764,11.86978 -2.26483,27.8994 -0.89335,6.54348 -6.35321,32.72675 -13.63706,40.91118 -2.57675,2.89534 -8.61428,1.94601 -11.61675,-0.50508 -7.52825,-6.14572 -6.42891,-18.58726 -7.07107,-28.28427 -1.18675,-17.92077 -2.30053,-37.66682 4.16688,-54.42197 3.73527,-9.67699 10.06238,-22.2825 20.70813,-24.36993 12.27213,-2.40633 17.36246,6.48809 20.73982,4.15697 4.28389,-2.95682 -5.88716,-10.11762 -19.09832,-9.9653 z"
       id="path4216"
       inkscape:connector-curvature="0"
       sodipodi:nodetypes="ssssssssssassssssss" />
    <path
       inkscape:connector-curvature="0"
       d="m 554.8361,442.21719 c 0,41.76599 14.11014,62.64897 42.33039,62.64897 18.06096,0 33.86432,-7.33725 47.41004,-22.01176 13.54574,-14.67457 20.31858,-31.04235 20.31858,-49.1033 0,-11.28812 -5.64406,-23.14065 -16.93213,-35.55756 -12.41689,-12.4169 -24.26944,-18.62537 -35.55756,-18.62537 -38.37953,0 -57.56932,20.88298 -57.56932,62.64902 z"
       style="font-style:normal;font-variant:normal;font-weight:300;font-stretch:normal;font-size:323.15362549px;line-height:100%;font-family:'Honey Script';-inkscape-font-specification:'Honey Script Light';text-align:start;letter-spacing:0px;word-spacing:0px;writing-mode:lr-tb;text-anchor:start;fill:#cd3349;fill-opacity:1;stroke:none;stroke-width:1px;stroke-linecap:butt;stroke-linejoin:miter;stroke-opacity:1"
       id="path4145-0-6"
       sodipodi:nodetypes="sssscss" />
    <g
       id="g4152"
       style="opacity:1;fill:#ffffff;fill-opacity:1"
       transform="matrix(0.4385743,0,0,0.37439766,337.72373,271.99014)">
      <path
         d="m 565.84862,493.66853 q 0,12.26419 -9.68226,12.26419 -9.68225,0 -9.68225,-9.03677 0,-3.8729 2.90468,-7.42306 3.22741,-3.8729 6.77757,-3.8729 9.68226,0 9.68226,8.06854 z"
         style="font-style:normal;font-variant:normal;font-weight:300;font-stretch:normal;font-size:medium;line-height:100%;font-family:'Honey Script';-inkscape-font-specification:'Honey Script Light';text-align:start;letter-spacing:0px;word-spacing:0px;writing-mode:lr-tb;text-anchor:start;fill:#ffffff;fill-opacity:1;stroke:none;stroke-width:1px;stroke-linecap:butt;stroke-linejoin:miter;stroke-opacity:1"
         id="path4146"
         inkscape:connector-curvature="0" />
      <path
         d="m 647.16443,412.01485 q 0,3.8729 -4.84113,21.30096 -3.55016,12.26419 -5.80935,20.33274 -1.93645,8.06854 -2.90468,11.94144 -3.55016,13.8779 -11.29596,20.33274 -3.8729,3.55016 -12.58693,6.77758 9.03677,37.11531 9.03677,60.02998 0,44.53837 -10.97322,63.25739 -1.61371,2.58194 -8.06855,2.58194 -26.14209,0 -25.17386,-61.32095 1.93645,-131.03318 22.26919,-262.71184 2.58193,-2.25919 10.00499,-2.25919 5.16387,0 9.68226,3.8729 -8.06855,11.94145 -10.97322,29.04676 -6.77758,39.69725 -11.29597,72.93965 -4.19564,32.91967 -5.80935,60.35272 6.77758,0.96823 12.26419,10.32774 1.29097,1.93645 6.45483,15.16887 10.005,2.25919 18.71903,-20.33274 2.58193,-6.45483 6.13209,-19.36451 3.87291,-12.90967 9.03678,-32.59692 0.96822,-4.19564 2.90467,-4.19564 3.22742,0 3.22742,4.51838 z m -35.82434,147.17027 q 0,-40.66547 -10.005,-65.83933 -8.39129,-4.19564 -12.90967,-13.23241 -3.8729,47.1203 -3.8729,77.78078 0,6.45483 0.64548,13.55515 0.64548,7.42306 1.93645,15.49161 4.19565,23.56015 10.97322,23.56015 6.1321,0 10.005,-22.91467 1.61371,-8.71403 2.25919,-15.81435 0.96823,-7.10032 0.96823,-12.58693 z"
         id="path4148"
         inkscape:connector-curvature="0"
         style="font-style:normal;font-variant:normal;font-weight:300;font-stretch:normal;font-size:medium;line-height:100%;font-family:'Honey Script';-inkscape-font-specification:'Honey Script Light';text-align:start;letter-spacing:0px;word-spacing:0px;writing-mode:lr-tb;text-anchor:start;fill:#ffffff;fill-opacity:1;stroke:none;stroke-width:1px;stroke-linecap:butt;stroke-linejoin:miter;stroke-opacity:1" />
      <path
         d="m 684.51676,503.67353 c -5.10405,4.99154 -12.26419,-3.76532 -16.78258,-11.29596 -1.93645,-3.22742 -3.01225,-9.78984 -3.22742,-19.68726 -0.43032,-7.31548 -0.43032,-17.32047 0,-30.01498 l 0.64549,-25.81935 c 0,-5.16387 -5.27145,-10.43532 -15.81435,-15.81435 0,5.37903 -2.58194,16.89016 -7.74581,34.53338 0,0.21516 -0.5379,1.39855 -1.6137,3.55016 -1.07581,1.93645 -1.61371,3.01225 -1.61371,3.22741 l -4.19565,-1.29096 c 0,-3.44258 1.29097,-10.22016 3.8729,-20.33274 2.7971,-9.68225 4.19565,-17.32048 4.19565,-22.91467 0,-2.15161 -0.86065,-5.80935 -2.58194,-10.97322 -1.72129,-5.16387 -2.58193,-8.92919 -2.58193,-11.29596 0,-10.75806 2.68952,-16.13709 8.06855,-16.13709 4.30322,0 6.56241,3.335 6.77757,10.00499 0.21517,1.29097 0.21517,2.7971 0,4.51839 0,1.50613 -0.10758,3.335 -0.32274,5.48661 -0.21516,2.58193 -0.43032,4.73354 -0.64548,6.45483 l 0,3.87291 c 0,2.15161 4.51838,5.59418 13.55515,10.32773 9.25193,4.73355 13.8779,10.22016 13.8779,16.45984 0,3.65774 -0.21516,8.17612 -0.64548,13.55515 -0.43032,5.16387 -1.0758,11.29597 -1.93645,18.39629 -0.86065,6.88516 -1.50613,13.01725 -1.93645,18.39628 -0.43033,5.16387 -0.64549,9.57468 -0.64549,13.23242 0,10.11257 6.23066,18.34453 9.35952,15.16886 14.5892,-14.80749 16.54354,-5.8938 1.93645,8.39129 z"
         id="path4150"
         inkscape:connector-curvature="0"
         sodipodi:nodetypes="sscccccccccssssccccscscccsss"
         style="font-style:normal;font-variant:normal;font-weight:300;font-stretch:normal;font-size:medium;line-height:100%;font-family:'Honey Script';-inkscape-font-specification:'Honey Script Light';text-align:start;letter-spacing:0px;word-spacing:0px;writing-mode:lr-tb;text-anchor:start;fill:#ffffff;fill-opacity:1;stroke:none;stroke-width:1px;stroke-linecap:butt;stroke-linejoin:miter;stroke-opacity:1" />
    </g>
  </g>
</svg>
